<?xml version="1.0" encoding="UTF-8" standalone="no"?><!DOCTYPE svg PUBLIC "-//W3C//DTD SVG 1.1//EN" "http://www.w3.org/Graphics/SVG/1.1/DTD/svg11.dtd"><svg width="100%" height="100%" viewBox="0 0 1000 1000" version="1.1" xmlns="http://www.w3.org/2000/svg" xmlns:xlink="http://www.w3.org/1999/xlink" xml:space="preserve" xmlns:serif="http://www.serif.com/" style="fill-rule:evenodd;clip-rule:evenodd;stroke-linejoin:round;stroke-miterlimit:2;"><path d="M114.012,713.998c-1.282,-1.391 -117.683,-107.316 -78.796,-284.574c29.523,-134.574 140.185,-193.116 158.378,-202.741c90.952,-48.115 132.086,22.901 136.941,51.81c11.971,71.281 -51.096,94.916 -57.776,98.494c-88.085,47.18 -82.736,139.435 -64.936,176.373c45.082,93.55 102.859,55.416 122.344,133.219c15.823,63.18 -61.964,178.454 -216.155,27.418Z" style="fill-opacity:0.98;"/><path d="M882.999,283.008c156.409,160.243 99.458,416.37 -99.454,500.596c-69.267,29.33 -143.913,-46.99 -105.689,-118.908c25.763,-48.472 75.674,-31.952 113.312,-108.367c9.288,-18.857 23.146,-77.902 -7.131,-125.521c-45.722,-71.911 -96.174,-49.114 -113.699,-113.259c-10.31,-37.738 12.744,-74.738 18.551,-79.628c26.174,-22.038 76.259,-64.877 194.11,45.086Z" style="fill-opacity:0.98;"/><path d="M573.006,594.994c2.127,2.191 54.757,45.811 33.008,115.355c-37.02,118.374 -213.692,100.863 -216.833,-33.839c-1.864,-79.948 100.309,-150.276 183.825,-81.516Z" style="fill-opacity:0.98;"/><path d="M423.98,403.01c-7.288,-7.725 -28.469,-27.504 -33.995,-66.576c-14.673,-103.746 114.299,-167.449 187.261,-94.663c96.508,96.276 -30.121,258.014 -153.266,161.238Z" style="fill-opacity:0.98;"/></svg>