<?xml version="1.0" encoding="UTF-8" standalone="no"?><!DOCTYPE svg PUBLIC "-//W3C//DTD SVG 1.1//EN" "http://www.w3.org/Graphics/SVG/1.1/DTD/svg11.dtd"><svg width="100%" height="100%" viewBox="0 0 1000 1000" version="1.1" xmlns="http://www.w3.org/2000/svg" xmlns:xlink="http://www.w3.org/1999/xlink" xml:space="preserve" xmlns:serif="http://www.serif.com/" style="fill-rule:evenodd;clip-rule:evenodd;stroke-linejoin:round;stroke-miterlimit:2;"><g><path d="M206.999,883.488c0.21,-11.328 0.277,-14.926 21.245,-140.025c20.191,-120.462 21.68,-121.268 19.132,-123.839c-17.978,-18.142 -18.426,-17.429 -36.578,-35.424c-91.26,-90.469 -139.222,-135.217 -147.943,-146.996c-4.633,-6.258 -8.168,-22.028 -7.582,-26.727c7.368,-59.042 56.055,-46.513 103.318,-56.698c1.904,-0.41 157.056,-23.305 185.01,-26.826c2.322,-0.293 90.269,-181.38 108.198,-217.299c23.093,-46.265 63.733,-44.947 90.344,-11.856c3.41,4.241 63.58,131.024 105.772,215.501c4.589,9.188 2.418,12.499 12.616,13.96c63.689,9.121 63.415,9.683 127.015,18.795c116.47,16.688 135.372,14.137 151.351,42.236c22.517,39.599 -27.554,75.782 -30.683,78.923c-57.435,57.656 -159.561,152.068 -158.189,158.347c8.463,38.713 34,197.094 41.728,235.901c6.034,30.3 -11.151,51.365 -20.051,56.429c-34.104,19.404 -58.122,-2.807 -102.402,-24.989c-4.089,-2.048 -167.375,-88.362 -168.722,-88.688c-2.617,-0.633 -160.647,84.533 -219.232,113.988c-48.371,24.321 -72.6,-16.102 -74.348,-34.714Z" style="fill-opacity:1;"/></g></svg>