<?xml version="1.0" encoding="UTF-8" standalone="no"?><!DOCTYPE svg PUBLIC "-//W3C//DTD SVG 1.1//EN" "http://www.w3.org/Graphics/SVG/1.1/DTD/svg11.dtd"><svg width="100%" height="100%" viewBox="0 0 1000 1000" version="1.1" xmlns="http://www.w3.org/2000/svg" xmlns:xlink="http://www.w3.org/1999/xlink" xml:space="preserve" xmlns:serif="http://www.serif.com/" style="fill-rule:evenodd;clip-rule:evenodd;stroke-linejoin:round;stroke-miterlimit:2;"><g><path d="M759.15,751.152c-63.825,63.886 -112.8,100.007 -118.581,105.427c-22.692,21.275 -118.659,74.425 -221.904,33.565c-53.306,-21.096 -86.239,-56.275 -128.527,-92.225c-33.383,-28.38 -31.889,-29.847 -84.29,-83.76c-12.141,-12.492 -108.363,-119.936 -146.313,-228.673c-22.63,-64.842 -24.105,-99.996 -23.308,-143.991c0.762,-42.062 27.914,-153.274 102.588,-201.592c91.741,-59.361 225.724,-72.9 324.717,30.566c11.312,11.823 32.609,43.884 35.239,47.843c2.663,4.009 0.264,-3.926 37.344,-47.16c60.125,-70.103 194.461,-115.701 325.07,-31.25c12.833,8.298 36.684,29.497 42.624,39.398c7.132,11.888 98.344,119.036 41.973,290.275c-48.199,146.414 -157.142,248.554 -186.632,281.576Z" style="fill-opacity:1;"/></g></svg>