<?xml version="1.0" encoding="UTF-8" standalone="no"?><!DOCTYPE svg PUBLIC "-//W3C//DTD SVG 1.1//EN" "http://www.w3.org/Graphics/SVG/1.1/DTD/svg11.dtd"><svg width="100%" height="100%" viewBox="0 0 1000 1000" version="1.1" xmlns="http://www.w3.org/2000/svg" xmlns:xlink="http://www.w3.org/1999/xlink" xml:space="preserve" xmlns:serif="http://www.serif.com/" style="fill-rule:evenodd;clip-rule:evenodd;stroke-linejoin:round;stroke-miterlimit:2;"><g id="_6.png" serif:id="6.png"><path d="M466.948,429.681c0.077,0.133 3.966,6.813 1.916,0.19c-10.106,-36.034 -47.575,-193.558 -66.742,-266.543c-5.502,-20.952 0.448,-46.872 15.505,-65.072c61.967,-74.902 192.676,-20.723 175.884,60.843c-3.468,16.844 -4.272,16.529 -51.948,208.593c-15.02,60.51 -15.261,61.089 -14.749,61.06c0.283,-0.016 145.683,-242.131 146.673,-243.198c69.183,-74.594 180.615,11.077 163.688,92.469c-8.556,41.139 -37.099,50.412 -72.488,72.333c-184.679,114.391 -209.983,123.129 -192.612,118.131c37.492,-10.788 237.228,-58.726 258.322,-64.685c4.701,-1.328 35.054,-9.901 60.709,6.53c83.934,53.757 44.416,191.572 -46.043,183.932c-10.186,-0.86 -242.446,-59.85 -263.493,-65.195c-0.482,-0.122 -21.679,-7.704 -4.579,1.431c5.427,2.899 201.574,122.092 225.711,135.782c75.169,42.634 32.831,151.784 -39.829,169.334c-72.678,17.554 -96.491,-42.974 -98.402,-46.164c-10.543,-17.607 -124.11,-207.267 -132.321,-219.762c-0.058,-0.082 -2.14,-3.045 -1.22,0.309c3.526,11.906 3.266,11.95 29.178,116.049c35.465,142.477 35.963,142.27 38.606,154.753c5.197,24.546 -7.353,61.838 -39.515,80.699c-79.515,46.632 -170.257,-17.653 -151.74,-85.983c15.096,-55.705 60.114,-244.921 65.85,-262.348c2.945,-8.947 -4.513,4.598 -4.783,5.087c-16.074,29.193 -126.982,211.356 -138.132,229.669c-37.748,62.001 -141.109,33.938 -164.177,-38.67c-24.68,-77.683 44.384,-104.83 46.244,-105.956c200.194,-121.219 200.782,-119.899 217.724,-131.143c0.081,-0.058 2.874,-2.065 -0.302,-1.215c-26.56,7.825 -218.84,53.583 -263.596,65.99c-89.716,24.871 -142.836,-112.863 -68.027,-173.999c35.555,-29.056 66.521,-14.88 113.371,-3.262c204.391,50.685 204.548,50.069 215.143,53.939c17.654,6.449 -6.589,-6.346 -200.377,-122.661c-35.483,-21.298 -71.017,-34.845 -68.969,-91.784c2.417,-67.213 97.841,-139.19 163.084,-71.921c5.262,5.426 142.406,234.288 146.438,242.437Z"/></g></svg>