<?xml version="1.0" encoding="UTF-8" standalone="no"?><!DOCTYPE svg PUBLIC "-//W3C//DTD SVG 1.1//EN" "http://www.w3.org/Graphics/SVG/1.1/DTD/svg11.dtd"><svg width="100%" height="100%" viewBox="0 0 1000 1000" version="1.1" xmlns="http://www.w3.org/2000/svg" xmlns:xlink="http://www.w3.org/1999/xlink" xml:space="preserve" xmlns:serif="http://www.serif.com/" style="fill-rule:evenodd;clip-rule:evenodd;stroke-linejoin:round;stroke-miterlimit:2;"><g><path d="M431.998,44.999c32.264,-28.331 68.623,-12.414 79.403,-3.379c11.594,9.717 215.961,244.084 234.586,265.444c19.549,22.418 53.12,48.719 21.452,79.374c-36.508,35.341 -139.734,-8.675 -154.56,34.2c-1.351,3.908 -1.202,3.99 -1.202,376.862c0,130.964 1.531,132.844 -9.642,145.545c-18.099,20.572 -30.346,17.604 -158.535,17.604c-48.682,0 -94.695,6.132 -106.711,-33.232c-2.634,-8.63 -0.415,-489.546 -1.216,-499.92c-2.747,-35.556 -48.461,-25.163 -118.086,-26.703c-34.008,-0.752 -56.616,-27.293 -49.11,-51.331c4.261,-13.645 6.974,-12.31 263.621,-304.463Z" style="fill-opacity:1;"/></g></svg>