<?xml version="1.0" encoding="UTF-8" standalone="no"?><!DOCTYPE svg PUBLIC "-//W3C//DTD SVG 1.1//EN" "http://www.w3.org/Graphics/SVG/1.1/DTD/svg11.dtd"><svg width="100%" height="100%" viewBox="0 0 1000 1000" version="1.1" xmlns="http://www.w3.org/2000/svg" xmlns:xlink="http://www.w3.org/1999/xlink" xml:space="preserve" xmlns:serif="http://www.serif.com/" style="fill-rule:evenodd;clip-rule:evenodd;stroke-linejoin:round;stroke-miterlimit:2;"><path d="M977.899,447.669l-456.961,-350.288c-12.215,-9.365 -29.457,-9.365 -41.686,0l-457.181,350.288c-11.651,9.02 -16.223,24.32 -11.54,38.257c4.806,13.937 17.82,23.301 32.445,23.301l99.25,0l0,366.152c0,18.963 15.3,34.263 34.263,34.263l647.226,0c18.963,0 34.263,-15.3 34.263,-34.263l0,-366.152l99.14,0c14.722,0 27.749,-9.365 32.432,-23.301c4.572,-13.937 -0.11,-29.237 -11.651,-38.257Z" style="fill-rule:nonzero;"/></svg>