<?xml version="1.0" encoding="UTF-8"?>
<svg id="outlined_rev" data-name="outlined rev" xmlns="http://www.w3.org/2000/svg" viewBox="0 0 132 132">
  <defs>
    <style>
      .cls-1 {
        fill: #92bcff;
      }

      .cls-2 {
        fill: #052250;
      }
    </style>
  </defs>
  <g>
    <path class="cls-1" d="m66,97.81l-.07.19h.14l-.07-.19Z"/>
    <path class="cls-1" d="m66,32c-18.2,0-33,14.8-33,33,0,7.52,2.52,14.45,6.78,20,1.08,1.44,2.29,2.78,3.61,4,.85.81,1.73,1.56,2.66,2.27,5.52,4.21,12.41,6.71,19.88,6.73l.07-.19.07.19c7.47-.02,14.36-2.52,19.88-6.73.93-.71,1.81-1.46,2.66-2.27,1.32-1.22,2.53-2.56,3.61-4,4.26-5.55,6.78-12.48,6.78-20,0-18.2-14.8-33-33-33Zm20.98,53c-.77.81-1.59,1.58-2.45,2.29-.73.61-1.48,1.18-2.27,1.71-4.28,2.92-9.39,4.71-14.89,4.96-.45.03-.91.04-1.37.04s-.92-.01-1.37-.04c-5.5-.25-10.61-2.04-14.89-4.96-.79-.53-1.54-1.1-2.27-1.71-.86-.71-1.68-1.48-2.45-2.29-4.97-5.21-8.02-12.25-8.02-20,0-15.99,13.01-29,29-29s29,13.01,29,29c0,7.75-3.05,14.79-8.02,20Z"/>
  </g>
  <g>
    <polygon class="cls-2" points="65.93 98 66.07 98 66 97.81 65.93 98"/>
    <path class="cls-2" d="m123,2H11C6.59,2,3,5.59,3,10v71c0,4.41,3.59,8,8,8h23.02c2.67,3.55,5.91,6.64,9.59,9.13l-8.47,23.79c-.55,1.54.89,3.05,2.47,2.58l8.68-2.62,5.08,7.52c.92,1.36,2.99,1.1,3.54-.45l8.56-24.03c.84.05,1.68.08,2.53.08s1.69-.03,2.53-.08l8.56,24.03c.55,1.55,2.62,1.81,3.54.45l5.08-7.52,8.68,2.62c1.58.47,3.02-1.04,2.47-2.58l-8.47-23.79c3.68-2.49,6.92-5.58,9.59-9.13h25.02c4.41,0,8-3.59,8-8V10c0-4.41-3.59-8-8-8Zm-3,5c1.1,0,2,.9,2,2s-.9,2-2,2-2-.9-2-2,.9-2,2-2Zm-7,0c1.1,0,2,.9,2,2s-.9,2-2,2-2-.9-2-2,.9-2,2-2Zm-7,0c1.1,0,2,.9,2,2s-.9,2-2,2-2-.9-2-2,.9-2,2-2Zm-10.09,78c-.94,1.41-1.98,2.74-3.11,4-1.73,1.94-3.68,3.69-5.8,5.22-5.63,4.06-12.47,6.53-19.87,6.76-.38.01-.75.02-1.13.02s-.75-.01-1.13-.02c-7.4-.23-14.24-2.7-19.87-6.76-2.12-1.53-4.07-3.28-5.8-5.22-1.13-1.26-2.17-2.59-3.11-4-3.85-5.72-6.09-12.61-6.09-20,0-19.85,16.15-36,36-36s36,16.15,36,36c0,7.39-2.24,14.28-6.09,20Zm31.09-4c0,2.21-1.79,4-4,4h-22.36c3.41-5.89,5.36-12.72,5.36-20,0-22.06-17.94-40-40-40s-40,17.94-40,40c0,7.28,1.95,14.11,5.36,20H11c-2.21,0-4-1.79-4-4V16h120v65Z"/>
    <circle class="cls-2" cx="66.14" cy="48.04" r="4.75" transform="translate(-6.84 11.21) rotate(-9.22)"/>
    <path class="cls-2" d="m82.06,49.68c-.47.26-.95.5-1.42.74-.31.16-.63.32-.94.47-.33.16-.66.31-.99.45-.32.14-.64.29-.96.42-.33.13-.65.26-.98.38-.32.12-.65.25-.97.36-.33.11-.65.21-.98.31-.32.1-.64.2-.96.29-.33.09-.67.17-1,.25-.31.07-.62.15-.93.22-.35.07-.7.13-1.04.18-.3.05-.59.11-.89.15-.38.05-.75.08-1.13.12-.27.03-.54.06-.8.08-.5.03-1.01.05-1.51.05-.28,0-.56,0-.84,0-.5,0-.99-.02-1.49-.05-.27-.02-.55-.06-.82-.08-.37-.04-.74-.07-1.11-.12-.3-.04-.61-.1-.91-.15-.34-.06-.68-.11-1.02-.18-.32-.07-.64-.15-.96-.22-.32-.08-.65-.15-.97-.24-.33-.09-.65-.19-.98-.3-.32-.1-.64-.19-.95-.3-.33-.11-.66-.24-.99-.37-.32-.12-.63-.24-.95-.37-.33-.14-.66-.28-.99-.43-.32-.14-.64-.29-.96-.44-.32-.15-.65-.32-.97-.48-.47-.24-.93-.47-1.4-.73-.97-.54-2.19-.19-2.74.78-.54.97-.19,2.19.78,2.74.29.16.59.3.88.46h0c.24.14.48.25.73.37.33.17.66.34.99.49.4.19.79.36,1.19.54.33.14.66.29.99.43.4.16.8.31,1.2.46.33.12.65.25.98.36.41.14.81.26,1.22.38.32.1.64.2.97.29.42.11.83.21,1.25.3.31.07.62.15.94.22.27.05.54.1.8.14l.73,7.61v2.3l-5.88,16.6c-.48,1.35.23,2.82,1.57,3.3.29.1.58.15.86.15,1.06,0,2.06-.66,2.44-1.72l5.29-14.94h1.48l5.29,14.94c.38,1.06,1.37,1.72,2.44,1.72.29,0,.58-.05.86-.15,1.35-.48,2.05-1.96,1.57-3.3l-5.88-16.6v-2.3l.73-7.61c.27-.05.54-.09.81-.15.29-.06.59-.14.88-.2.44-.1.87-.2,1.31-.32.3-.08.6-.18.9-.27.43-.13.86-.26,1.28-.4.31-.1.61-.22.92-.33.42-.16.84-.31,1.27-.48.31-.13.62-.26.93-.4.42-.18.83-.37,1.25-.57.31-.15.63-.31.94-.47.25-.13.5-.24.76-.38v-.02c.28-.16.58-.3.87-.46.97-.54,1.32-1.77.78-2.74-.54-.97-1.76-1.32-2.74-.78Z"/>
  </g>
</svg>