<?xml version="1.0" encoding="UTF-8"?>
<svg id="outlined_rev" data-name="outlined rev" xmlns="http://www.w3.org/2000/svg" viewBox="0 0 132 132">
  <defs>
    <style>
      .cls-1 {
        fill: #92bcff;
      }

      .cls-2 {
        fill: #fff;
      }

      .cls-3 {
        fill: #052250;
      }
    </style>
  </defs>
  <path class="cls-2" d="m20.96,107.44l-8.59-4.96c-1.2-.69-2.7.17-2.7,1.56v9.92c0,1.39,1.5,2.26,2.7,1.56l8.59-4.96c1.2-.69,1.2-2.43,0-3.12Z"/>
  <g>
    <path class="cls-3" d="m21.21,81.27c.76,0,1.46-.23,2.1-.7.64-.47,1.12-1.12,1.44-1.97l3.46-8.14h19.91l3.47,8.08c.36.85.86,1.51,1.5,2,.64.49,1.37.73,2.17.73.93,0,1.79-.36,2.57-1.07.78-.71,1.17-1.67,1.17-2.87,0-.49-.11-1.02-.33-1.6l-16.42-39.12c-.31-.84-.81-1.5-1.5-1.97-.69-.47-1.44-.7-2.24-.7-.85-.09-1.64.11-2.37.6-.73.49-1.28,1.18-1.64,2.07l-16.62,39.92c-.13.45-.2.87-.2,1.27,0,.98.29,1.8.87,2.47.58.67,1.47,1,2.67,1Zm16.91-34.11l6.7,15.62h-13.35l6.64-15.62Z"/>
    <path class="cls-3" d="m66.73,80.94h15.96c4.32,0,7.95-1.04,10.91-3.14,2.96-2.09,5.22-4.91,6.78-8.44,1.56-3.54,2.34-7.46,2.34-11.78,0-3.2-.43-6.22-1.3-9.04s-2.16-5.32-3.87-7.48-3.82-3.84-6.31-5.04c-2.49-1.2-5.34-1.8-8.54-1.8h-15.96c-1.16,0-2.13.39-2.9,1.17s-1.17,1.75-1.17,2.9v38.58c0,1.16.39,2.13,1.17,2.9.78.78,1.75,1.17,2.9,1.17Zm4.27-39.05h11.02c2.09,0,3.89.42,5.41,1.27,1.51.85,2.76,1.99,3.74,3.44.98,1.45,1.7,3.12,2.17,5.01.47,1.89.7,3.88.7,5.97,0,2.8-.41,5.4-1.23,7.78-.82,2.38-2.13,4.29-3.91,5.74-1.78,1.45-4.07,2.17-6.88,2.17h-11.02v-31.38Z"/>
    <path class="cls-3" d="m124,98H8c-3.31,0-6,2.69-6,6v10c0,3.31,2.69,6,6,6h116c3.31,0,6-2.69,6-6v-10c0-3.31-2.69-6-6-6Zm-103.04,12.56l-8.59,4.96c-1.2.7-2.7-.17-2.7-1.56v-9.92c0-1.39,1.5-2.26,2.7-1.56l8.59,4.96c1.2.69,1.2,2.43,0,3.12Zm99.04.44h-23.25c-.9,3.45-4.03,6-7.75,6s-6.85-2.55-7.75-6h-47.25c-1.1,0-2-.9-2-2s.9-2,2-2h47.25c.9-3.45,4.03-6,7.75-6s6.85,2.55,7.75,6h23.25c1.1,0,2,.9,2,2s-.9,2-2,2Z"/>
  </g>
  <g>
    <path class="cls-1" d="m120,107h-23.25c-.9-3.45-4.03-6-7.75-6s-6.85,2.55-7.75,6c-.16.64-.25,1.31-.25,2s.09,1.36.25,2c.9,3.45,4.03,6,7.75,6s6.85-2.55,7.75-6h23.25c1.1,0,2-.9,2-2s-.9-2-2-2Zm-27.54,4c-.69,1.2-1.98,2-3.46,2s-2.77-.8-3.46-2c-.34-.59-.54-1.27-.54-2s.2-1.41.54-2c.69-1.2,1.98-2,3.46-2s2.77.8,3.46,2c.34.59.54,1.27.54,2s-.2,1.41-.54,2Z"/>
    <path class="cls-1" d="m92.67,27.66c6.47,1.02,11.51,6.06,12.53,12.53.16.99,1.01,1.69,1.97,1.69.1,0,.21,0,.32-.02,1.09-.17,1.84-1.2,1.66-2.29-1.3-8.19-7.67-14.56-15.86-15.86-1.08-.17-2.12.57-2.29,1.66-.17,1.09.57,2.12,1.66,2.29Z"/>
    <path class="cls-1" d="m95.18,20.02c9.14,1.45,16.26,8.56,17.71,17.71.16.99,1.01,1.69,1.97,1.69.1,0,.21,0,.32-.02,1.09-.17,1.84-1.2,1.66-2.29-1.72-10.86-10.17-19.32-21.04-21.04-1.08-.17-2.12.57-2.29,1.66-.17,1.09.57,2.12,1.66,2.29Z"/>
    <path class="cls-1" d="m124.97,35.1c-2.23-14.05-13.17-24.99-27.22-27.22-1.08-.17-2.12.57-2.29,1.66-.17,1.09.57,2.12,1.66,2.29,12.34,1.95,21.94,11.56,23.89,23.89.16.99,1.01,1.69,1.97,1.69.1,0,.21,0,.32-.02,1.09-.17,1.84-1.2,1.66-2.29Z"/>
  </g>
</svg>