<?xml version="1.0" encoding="UTF-8"?>
<svg id="outlined_rev" data-name="outlined rev" xmlns="http://www.w3.org/2000/svg" viewBox="0 0 132 132">
  <defs>
    <style>
      .cls-1 {
        fill: #92bcff;
      }

      .cls-2 {
        fill: #052250;
      }
    </style>
  </defs>
  <g>
    <polygon class="cls-1" points="68.67 50.37 68.58 50.28 68.65 50.28 68.67 50.37"/>
    <path class="cls-1" d="m72.83,48.75l-1.02,1.53h-3.23l-1.33-1.22L26.1,11.25h-9.18l40.02,39.03,9.63,9.4,1.39,6.49.14.64-16.58-16.23L11.8,11.83c-.78-.76-1.02-1.91-.61-2.92.41-1.01,1.39-1.66,2.48-1.66h12.95c.67,0,1.32.25,1.81.7l44.4,40.8Z"/>
  </g>
  <g>
    <path class="cls-2" d="m71.16,85.76l-3.06-18.95-16.58-16.23c-4.98.89-9.3,3.7-12.18,7.64-4.4-1.43-8.44-4.95-12.44-10.77-1-1.45-2.98-1.81-4.42-.82-1.45,1-1.81,2.98-.82,4.42,4.55,6.61,9.44,10.88,14.82,12.9-.41,1.35-.68,2.76-.77,4.21l-2.59,22.15-9.5,4.33c-1.02.47-1.8,1.35-2.14,2.42l-7.27,22.59c-.67,2.1.48,4.36,2.59,5.03.4.13.82.2,1.22.2,1.69,0,3.26-1.08,3.81-2.78l6.72-20.91,10.02-4.58c.82-.37,1.47-1,1.88-1.78l4.16-5.7,1.41,9.15c.01.46.1.92.27,1.35l9.35,24.33c.62,1.59,2.13,2.56,3.74,2.56.48,0,.96-.08,1.43-.27,2.07-.79,3.09-3.1,2.3-5.16l-8.72-22.69,6.32-12.64h10.45Z"/>
    <polygon class="cls-2" points="71.05 61.47 87.98 51.31 88.51 50.99 86.81 50.28 76.37 45.93 75.08 45.35 75.07 45.34 74.99 45.49 72.83 48.75 71.81 50.28 68.65 50.28 68.58 50.28 68.67 50.37 71.05 61.47"/>
    <polygon class="cls-2" points="64.56 50.28 56.94 50.28 66.57 59.68 64.56 50.28"/>
    <path class="cls-2" d="m120.29,23.44h-9.87v-3.16c0-1.1-.9-2-2-2h-12.26c-4.54,0-8.69,2.56-10.72,6.61l-7.11,14.14h-.01l-1.42,2.76,23.5,9.83h.03s1.16.49,1.16.49l.85.36v-11.87l13.58.37c.9.02,1.7-.55,1.96-1.41l4.22-13.52c.4-1.29-.56-2.6-1.91-2.6Z"/>
    <path class="cls-2" d="m107.93,112.45l-7.14-31.38,1.38-11.34c.18-1.04.27-2.12.27-3.21v-9.72l-9.34-3.9-21.16,12.7,3.32,20.16h1.34l.35,5.08,1.29,5.83.02-.03,2.76,27.76c.2,2.06,1.94,3.6,3.98,3.6.13,0,.26-.01.4-.02,2.19-.22,3.8-2.18,3.58-4.38l-2.87-28.88,7.04-11.17,6.97,30.61,1.98,9.42c.39,1.88,2.05,3.18,3.91,3.18.27,0,.55-.03.82-.09,2.16-.45,3.55-2.57,3.1-4.74l-2-9.48Z"/>
  </g>
</svg>