<?xml version="1.0" encoding="UTF-8"?>
<svg id="outlined_rev" data-name="outlined rev" xmlns="http://www.w3.org/2000/svg" viewBox="0 0 132 132">
  <defs>
    <style>
      .cls-1 {
        fill: #92bcff;
      }

      .cls-2 {
        fill: #052250;
      }
    </style>
  </defs>
  <path class="cls-1" d="m122,6H10C5.59,6,2,9.59,2,14v61.68l14.96,21.32h105.04c4.41,0,8-3.59,8-8V14c0-4.41-3.59-8-8-8Zm4,83c0,2.21-1.79,4-4,4h-54v-20c0-1.1-.9-2-2-2s-2,.9-2,2v20H19.04l-13.04-18.59V14c0-2.21,1.79-4,4-4h54v17c0,1.1.9,2,2,2s2-.9,2-2V10h54c2.21,0,4,1.79,4,4v75Z"/>
  <g>
    <path class="cls-2" d="m18,73h0l-13.98.03c-.75,0-1.43.42-1.77,1.08s-.29,1.46.14,2.07l13.98,19.97c.38.54,1,.85,1.64.85.2,0,.4-.03.6-.09.83-.26,1.4-1.03,1.4-1.91v-20c0-.53-.21-1.04-.59-1.42-.38-.37-.88-.58-1.41-.58Z"/>
    <path class="cls-2" d="m120,105l-7.79-28.23h-.1s.09-.01.09-.01l-2.73-6.45c-.64-1.51-2.13-2.47-3.76-2.44l-4.99.1-.49-.66c-.66-.89-1.72-1.41-2.83-1.38l-4.49.1h-.13s-1.1.03-1.1.03l-.21-.29c-.66-.89-1.72-1.41-2.83-1.38l-6.17.14-1.12.03-5.89-12.5c-.88-1.87-3.06-2.75-5-2.02-1.94.73-2.99,2.83-2.41,4.82l9.93,34.17-.18.25-10.75-5.05c-2.14-1.01-4.7-.29-6.01,1.68-1.31,1.97-.98,4.61.78,6.19l17.93,16.16c1.25,1.98,2.97,3.67,5.02,4.89v.02s.19.08.19.08c.68.39,1.38.73,2.13,1.01l9.93,4.73.83,9h32.21l-10.04-23Z"/>
    <circle class="cls-2" cx="78" cy="22" r="5"/>
    <circle class="cls-2" cx="100" cy="38" r="5"/>
    <circle class="cls-2" cx="114" cy="38" r="5"/>
    <circle class="cls-2" cx="114" cy="22" r="5"/>
    <circle class="cls-2" cx="100" cy="54" r="5"/>
    <circle class="cls-2" cx="16" cy="22" r="5"/>
    <circle class="cls-2" cx="16" cy="38" r="5"/>
    <circle class="cls-2" cx="41" cy="22" r="5"/>
    <circle class="cls-2" cx="41" cy="38" r="5"/>
    <circle class="cls-2" cx="41" cy="54" r="5"/>
    <circle class="cls-2" cx="54" cy="38" r="5"/>
  </g>
</svg>