<?xml version="1.0" encoding="UTF-8"?>
<svg id="outlined_rev" data-name="outlined rev" xmlns="http://www.w3.org/2000/svg" viewBox="0 0 132 132">
  <defs>
    <style>
      .cls-1 {
        fill: #92bcff;
      }

      .cls-2 {
        fill: #052250;
      }
    </style>
  </defs>
  <g>
    <path class="cls-1" d="m126.79,110h-61.92c-1.1,0-2,.9-2,2s.9,2,2,2h61.92c1.1,0,2-.9,2-2s-.9-2-2-2Z"/>
    <path class="cls-1" d="m115.11,120h-50.55c-1.1,0-2,.9-2,2s.9,2,2,2h50.55c1.1,0,2-.9,2-2s-.9-2-2-2Z"/>
  </g>
  <g>
    <path class="cls-2" d="m61.76,63.46c-.73-.11-1.47.02-2.21.37-.89.46-1.81.78-2.77.96-.96.18-1.92.27-2.88.27-1.74,0-3.36-.26-4.85-.77-1.49-.51-2.79-1.31-3.89-2.37s-1.96-2.4-2.58-4c-.62-1.6-.93-3.48-.93-5.65,0-1.85.28-3.54.83-5.06.55-1.53,1.36-2.85,2.42-3.97,1.07-1.12,2.35-1.98,3.87-2.59,1.51-.6,3.23-.91,5.14-.91,1.03,0,2.02.11,2.96.32.94.21,1.84.52,2.69.91.75.36,1.48.5,2.21.43s1.32-.43,1.79-1.07c.67-.82.93-1.72.77-2.72s-.7-1.72-1.63-2.19c-1.32-.67-2.72-1.19-4.21-1.55-1.49-.35-3.02-.53-4.58-.53-2.77,0-5.33.47-7.68,1.41-2.35.94-4.38,2.26-6.1,3.95-1.72,1.69-3.06,3.69-4,6-.94,2.31-1.41,4.83-1.41,7.57,0,3.16.51,5.94,1.55,8.34,1.03,2.4,2.44,4.4,4.24,6,1.79,1.6,3.84,2.81,6.13,3.62,2.29.82,4.72,1.23,7.28,1.23,1.03,0,2.04-.08,3.04-.24.99-.16,1.98-.39,2.96-.69.98-.3,1.93-.68,2.85-1.15.89-.43,1.43-1.11,1.63-2.05.2-.94-.06-1.86-.77-2.75-.5-.64-1.11-1.01-1.84-1.12Z"/>
    <path class="cls-2" d="m93.59,63.46c-.73-.11-1.47.02-2.21.37-.89.46-1.81.78-2.77.96-.96.18-1.92.27-2.88.27-1.74,0-3.36-.26-4.85-.77-1.49-.51-2.79-1.31-3.89-2.37s-1.96-2.4-2.58-4c-.62-1.6-.93-3.48-.93-5.65,0-1.85.28-3.54.83-5.06.55-1.53,1.36-2.85,2.42-3.97,1.07-1.12,2.35-1.98,3.87-2.59,1.51-.6,3.23-.91,5.14-.91,1.03,0,2.02.11,2.96.32.94.21,1.84.52,2.69.91.75.36,1.48.5,2.21.43s1.32-.43,1.79-1.07c.67-.82.93-1.72.77-2.72s-.7-1.72-1.63-2.19c-1.32-.67-2.72-1.19-4.21-1.55-1.49-.35-3.02-.53-4.58-.53-2.77,0-5.33.47-7.68,1.41-2.35.94-4.38,2.26-6.1,3.95-1.72,1.69-3.06,3.69-4,6-.94,2.31-1.41,4.83-1.41,7.57,0,3.16.51,5.94,1.55,8.34,1.03,2.4,2.44,4.4,4.24,6,1.79,1.6,3.84,2.81,6.13,3.62,2.29.82,4.72,1.23,7.28,1.23,1.03,0,2.04-.08,3.04-.24.99-.16,1.98-.39,2.96-.69.98-.3,1.93-.68,2.85-1.15.89-.43,1.43-1.11,1.63-2.05.2-.94-.06-1.86-.77-2.75-.5-.64-1.11-1.01-1.84-1.12Z"/>
    <path class="cls-2" d="m122,10H10c-4.41,0-8,3.59-8,8v71c0,4.41,3.59,8,8,8h6v-6c0-1.1.9-2,2-2h8c1.1,0,2,.9,2,2v6h94c4.41,0,8-3.59,8-8V18c0-4.41-3.59-8-8-8Zm4,74H6V18c0-2.21,1.79-4,4-4h112c2.21,0,4,1.79,4,4v66Z"/>
    <path class="cls-2" d="m51.27,115.55l-12.13-7.3c-1.33-.8-3.03.16-3.03,1.71v5.45l-12.11-.35v-22.06h-4v25.94l16.11.46v5.16c0,1.56,1.7,2.52,3.03,1.71l12.13-7.3c1.29-.78,1.29-2.65,0-3.43Z"/>
  </g>
</svg>