<?xml version="1.0" encoding="UTF-8"?>
<svg id="outlined_rev" data-name="outlined rev" xmlns="http://www.w3.org/2000/svg" viewBox="0 0 132 132">
  <defs>
    <style>
      .cls-1 {
        fill: #92bcff;
      }

      .cls-2 {
        fill: #052250;
      }
    </style>
  </defs>
  <path class="cls-2" d="m65.26,32.33c-16.06,1.1-28.95,14.33-29.66,30.42-.08,1.77,0,3.52.19,5.23l1.15,5.48c11.38,3.28,19.73,13.78,19.73,26.2,0,8.42-3.84,15.96-9.86,20.96l.76,3.66c3.62,3.88,8.93,6.16,14.76,5.65,8.63-.75,15.6-7.77,16.3-16.4.01-.15.02-.3.03-.45.57-10.1,4.96-19.5,11.95-26.81,5.49-5.73,8.85-13.51,8.85-22.07,0-18.38-15.53-33.15-34.2-31.87Zm15.33,44.83c-.39.39-.9.58-1.42.58s-1.02-.19-1.41-.58c-.78-.78-.78-2.05,0-2.83,5.5-5.5,5.5-14.45,0-19.94-5.5-5.5-14.44-5.5-19.94,0-.78.78-2.05.78-2.83,0-.78-.78-.78-2.05,0-2.83,7.06-7.06,18.54-7.06,25.6,0s7.06,18.54,0,25.6Z"/>
  <g>
    <path class="cls-1" d="m29.39,77.84c-12.03,0-21.82,9.79-21.82,21.82s9.79,21.82,21.82,21.82,21.82-9.79,21.82-21.82-9.79-21.82-21.82-21.82Zm-17.82,21.82c0-9.82,7.99-17.82,17.82-17.82,4.28,0,8.21,1.52,11.29,4.04l-25.06,25.06c-2.52-3.08-4.04-7.01-4.04-11.29Zm17.82,17.82c-4.11,0-7.88-1.41-10.9-3.75l24.96-24.96c2.34,3.02,3.75,6.79,3.75,10.9,0,9.82-7.99,17.82-17.82,17.82Z"/>
    <path class="cls-1" d="m121.78,48.84c-5.76-20.01-22-35.17-42.38-39.58-1.35-.29-2.68.57-2.97,1.92-.29,1.35.57,2.68,1.92,2.97,18.58,4.02,33.39,17.84,38.64,36.08.32,1.1,1.32,1.81,2.4,1.81.23,0,.46-.03.69-.1,1.33-.38,2.09-1.77,1.71-3.09Z"/>
    <path class="cls-1" d="m76.01,19.57c-1.35-.29-2.68.57-2.97,1.92-.29,1.35.57,2.68,1.92,2.97,15.33,3.31,27.55,14.71,31.88,29.77.32,1.1,1.32,1.81,2.4,1.81.23,0,.46-.03.69-.1,1.33-.38,2.09-1.77,1.71-3.09-4.85-16.83-18.5-29.58-35.63-33.27Z"/>
  </g>
</svg>