<?xml version="1.0" encoding="UTF-8"?>
<svg id="outlined_rev" data-name="outlined rev" xmlns="http://www.w3.org/2000/svg" viewBox="0 0 132 132">
  <defs>
    <style>
      .cls-1 {
        fill: #92bcff;
      }

      .cls-2 {
        fill: #052250;
      }
    </style>
  </defs>
  <g>
    <path class="cls-2" d="m123.96,61.16l7.04-10.16-31.6-10.53c-9.67-5.95-21.07-10.47-33.4-10.47C30.7,30,2.95,67.05,1.78,68.62c-1.31,1.78-.94,4.28.84,5.59,1.77,1.31,4.28.93,5.59-.84.26-.35,26.47-35.38,57.78-35.38s57.52,35.02,57.78,35.38c.78,1.06,1.99,1.62,3.22,1.62.83,0,1.66-.25,2.37-.78,1.78-1.31,2.16-3.82.84-5.59-.31-.42-2.53-3.37-6.25-7.46Z"/>
    <path class="cls-2" d="m66.5,95.5c-24.73,0-47.31-21.06-49.8-23.46l-5.55,5.76c4.46,4.29,28.06,25.7,55.35,25.7s49.66-21.08,53.97-25.31l-5.6-5.71c-3.92,3.84-24.69,23.02-48.37,23.02Z"/>
    <path class="cls-2" d="m83.5,65.5c0-9.66-7.84-17.5-17.5-17.5s-17.5,7.84-17.5,17.5,7.84,17.5,17.5,17.5,17.5-7.84,17.5-17.5Zm-26.73,0c0-1.1.89-2,2-2h14.23c1.1,0,2,.9,2,2s-.9,2-2,2h-14.23c-1.11,0-2-.9-2-2Z"/>
  </g>
  <path class="cls-1" d="m66,90c-13.51,0-24.5-10.99-24.5-24.5s10.99-24.5,24.5-24.5,24.5,10.99,24.5,24.5-10.99,24.5-24.5,24.5Zm0-45c-11.3,0-20.5,9.2-20.5,20.5s9.2,20.5,20.5,20.5,20.5-9.2,20.5-20.5-9.2-20.5-20.5-20.5Z"/>
</svg>