<?xml version="1.0" encoding="UTF-8"?>
<svg id="outlined_rev" data-name="outlined rev" xmlns="http://www.w3.org/2000/svg" viewBox="0 0 132 132">
  <defs>
    <style>
      .cls-1 {
        fill: #92bcff;
      }

      .cls-2 {
        fill: #052250;
      }
    </style>
  </defs>
  <g>
    <path class="cls-1" d="m44.23,38h-15.23c-4.41,0-8,3.59-8,8v25.83c0,1.1.9,2,2,2s2-.9,2-2v-25.83c0-2.21,1.79-4,4-4h15.23c1.1,0,2-.9,2-2s-.9-2-2-2Z"/>
    <path class="cls-1" d="m109,58.28c-1.1,0-2,.9-2,2v25.72c0,2.21-1.79,4-4,4h-15.23c-1.1,0-2,.9-2,2s.9,2,2,2h15.23c4.41,0,8-3.59,8-8v-25.72c0-1.1-.9-2-2-2Z"/>
    <rect class="cls-1" x="62" y="62" width="8" height="8"/>
    <rect class="cls-1" x="46" y="62" width="8" height="8"/>
    <rect class="cls-1" x="78" y="62" width="8" height="8"/>
  </g>
  <g>
    <path class="cls-2" d="m80.58,105.78l-8.17,3.41c1.13-3.09,2.35-6.44,2.35-6.44.48-1.16.54-2.46,0-3.68l-3.31-7.41c-2.57-5.35-10.51-2.13-8.58,3.51l2.09,5.59-2.77,6.24-10.78-.04-2.64-3.36c.97-2.68,1.13-5.49.57-8.15l11.62-3.89c2.08-.7,3.33-2.81,2.95-4.97-.38-2.16-2.29-3.71-4.48-3.65l-23.42.67h0c-2.51-.21-5.01.2-7.29,1.19h0s-25.7,11.02-25.7,11.02v27.43l14.38-7.75,38.33,13.24h0c.95.5,2.03.75,3.17.55l22.38-3.81c2.41-.42,4.12-2.65,3.83-5.11-.29-2.5-2.52-4.28-5-4.07l4.31-2.09c2.19-1.07,3.21-3.68,2.26-5.96-.99-2.36-3.7-3.48-6.07-2.49Z"/>
    <path class="cls-2" d="m115.62,16.47L77.29,3.23h0c-.95-.5-2.03-.75-3.17-.55l-22.38,3.81c-2.41.42-4.12,2.65-3.83,5.11.29,2.5,2.52,4.28,5,4.07l-4.31,2.09c-2.19,1.07-3.21,3.68-2.26,5.96.99,2.36,3.7,3.48,6.07,2.49l8.17-3.41c-1.13,3.09-2.35,6.44-2.35,6.44-.48,1.16-.54,2.46,0,3.68l3.31,7.41c2.57,5.35,10.51,2.13,8.58-3.51l-2.09-5.59,2.77-6.24,10.78.04,2.64,3.36c-.97,2.68-1.13,5.49-.57,8.15l-11.62,3.89c-2.08.7-3.33,2.81-2.95,4.97.38,2.16,2.29,3.71,4.48,3.65l23.42-.67h0c2.51.21,5.01-.2,7.29-1.19h0s25.7-11.02,25.7-11.02V8.72l-14.38,7.75Z"/>
  </g>
</svg>