<?xml version="1.0" encoding="UTF-8"?>
<svg id="outlined_rev" data-name="outlined rev" xmlns="http://www.w3.org/2000/svg" viewBox="0 0 132 132">
  <defs>
    <style>
      .cls-1 {
        fill: #92bcff;
      }

      .cls-2 {
        fill: #052250;
      }
    </style>
  </defs>
  <path class="cls-1" d="m86.99,72.9c-.31-1.31-.68-2.61-1.13-3.87-.39-1.13-.83-2.25-1.32-3.33-2.3-5.06-5.66-9.53-9.79-13.15-6.81-5.94-15.73-9.55-25.48-9.55-3.13,0-6.17.37-9.09,1.07-2.07.5-4.08,1.17-6,1.98-2.11.9-4.12,1.97-6.02,3.21-1.11.72-2.19,1.5-3.22,2.33-8.78,7.1-14.4,17.97-14.4,30.14,0,21.39,17.34,38.73,38.73,38.73s38.73-17.34,38.73-38.73c0-3.04-.35-5.99-1.01-8.83Zm-37.72,43.56c-19.15,0-34.73-15.58-34.73-34.73,0-10.06,4.3-19.13,11.15-25.47.93-.88,1.92-1.69,2.95-2.45,1.92-1.43,4-2.66,6.2-3.67,1.04-.47,2.11-.9,3.2-1.27,3.53-1.21,7.3-1.87,11.23-1.87,7.28,0,14.05,2.26,19.64,6.1,4.79,3.3,8.72,7.77,11.36,13,.6,1.17,1.13,2.38,1.59,3.62.46,1.26.86,2.55,1.17,3.87.64,2.61.97,5.34.97,8.14,0,19.15-15.58,34.73-34.73,34.73Z"/>
  <g>
    <path class="cls-2" d="m51.77,71.8s0,0,0,0l-.23-3.01h0s28.73-2.69,28.73-2.69c-2.64-5.23-6.57-9.7-11.36-13l-33.1,3.1-.38-2.39,2.61-4.94c-1.09.37-2.16.8-3.2,1.27-2.2,1.01-4.28,2.24-6.2,3.67-1.03.76-2.02,1.57-2.95,2.45l1.37,8.53c.22,1.33.93,2.45,1.93,3.2,1.29,1.48,3.18,2.39,5.26,2.39.21,0,.44-.01.66-.03l8.66-.81.15,1.99s0,0,0,0c-4.67-.11-9.6-.04-16.02.67-1.1.12-1.89,1.11-1.77,2.2.12,1.1,1.1,1.9,2.21,1.77,5.71-.63,10.23-.73,14.47-.66-1.69,1.63-2.74,3.92-2.74,6.46,0,4.97,4.03,9,9,9s9-4.03,9-9c0-2.34-.9-4.47-2.36-6.07,6.96.1,15.09-.23,27.52-2.31-.31-1.32-.71-2.61-1.17-3.87-14.12,2.33-22.5,2.34-30.09,2.08Zm-2.9,13.17c-1.65,0-3-1.35-3-3s1.35-3,3-3,3,1.35,3,3-1.34,3-3,3Z"/>
    <path class="cls-2" d="m129.89,105.49l-5.53-30.58c-.66-3.68-2.76-6.83-5.89-8.87-3.15-2.04-6.89-2.68-10.54-1.79-4.97,1.22-9.49,2.24-13.62,3.12-.26-.85-.55-1.68-.87-2.5l12.65-1.19c3.85-.36,6.67-3.78,6.31-7.63-.36-3.84-3.77-6.68-7.62-6.31l-19.15,1.79c-8.67-10.43-21.74-17.07-36.36-17.07-2.67,0-5.28.22-7.83.65-.01-.52-.04-1.04-.09-1.56-.65-7.37-4.28-13.71-9.48-16.6l-2.6-1.44-1.33-8.3c-.44-2.73-3-4.59-5.73-4.15-2.73.44-4.59,3.01-4.15,5.73l5.36,33.36C10.52,50.59,2,65.17,2,81.73c0,26.11,21.16,47.27,47.27,47.27s47.27-21.16,47.27-47.27c0-3.61-.4-7.12-1.17-10.5,4.1-.86,8.59-1.89,13.51-3.09,2.57-.63,5.2-.18,7.41,1.25,2.2,1.43,3.67,3.64,4.14,6.23l3.1,17.13-8.81,14.97c-.31-.04-.62-.06-.94-.06-1.77,0-3.4.58-4.73,1.55h-8.07c-1.1,0-2,.89-2,2s.9,2,2,2h5.18c-.25.77-.38,1.6-.38,2.45,0,4.42,3.58,8,8,8s8-3.58,8-8c0-.85-.13-1.68-.38-2.45h2.05c1.95,0,3.78-.86,5.03-2.36,1.24-1.49,1.76-3.45,1.41-5.36Zm-39.35-23.76c0,22.76-18.52,41.27-41.27,41.27S8,104.49,8,81.73c0-13.46,6.48-25.44,16.48-32.98,1.09-.82,2.22-1.58,3.38-2.3,1.88-1.14,3.85-2.13,5.91-2.96,2.29-.94,4.68-1.67,7.15-2.18,2.7-.56,5.49-.85,8.35-.85,11.2,0,21.39,4.5,28.84,11.78,3.82,3.74,6.93,8.22,9.08,13.21.44,1.01.84,2.05,1.19,3.11.43,1.26.8,2.55,1.1,3.87.69,2.99,1.06,6.1,1.06,9.3Zm23.24,37.93c-2.21,0-4-1.8-4-4,0-.92.31-1.77.84-2.45.63-.82,1.58-1.38,2.66-1.52.16-.02.33-.03.5-.03,1.02,0,1.95.38,2.65,1.02.19.15.36.33.5.53.54.68.85,1.53.85,2.45,0,2.2-1.8,4-4,4Zm11.63-11.37c-.49.58-1.2.92-1.96.92h-4.95s-.01-.01-.02-.01l6.14-10.43,1.34,7.43c.13.75-.07,1.51-.55,2.09Z"/>
  </g>
</svg>