<?xml version="1.0" encoding="UTF-8" standalone="no"?><!DOCTYPE svg PUBLIC "-//W3C//DTD SVG 1.1//EN" "http://www.w3.org/Graphics/SVG/1.1/DTD/svg11.dtd"><svg width="100%" height="100%" viewBox="0 0 1000 1000" version="1.1" xmlns="http://www.w3.org/2000/svg" xmlns:xlink="http://www.w3.org/1999/xlink" xml:space="preserve" xmlns:serif="http://www.serif.com/" style="fill-rule:evenodd;clip-rule:evenodd;stroke-linejoin:round;stroke-miterlimit:2;"><path d="M915.031,542.516l-65.339,0c-10.385,0 -18.792,8.964 -18.792,20.026l0,349.016c0,11.005 -8.406,19.969 -18.792,19.969l-207.349,-0c-6.65,-0 -12.042,-5.391 -12.042,-12.042l0,-174.953c0,-10.755 -8.714,-19.411 -19.469,-19.411l-155.406,0c-13.047,0 -23.615,10.573 -23.615,23.615l0,165.006c0,4.717 -1.874,9.241 -5.209,12.576c-3.335,3.335 -7.859,5.209 -12.576,5.209c-52.256,-0 -201.668,-0 -201.668,-0c-10.385,0 -18.792,-8.964 -18.792,-19.969l0,-349.016c0,-11.062 -8.344,-20.026 -18.729,-20.026l-65.401,0c-37.464,0 -56.625,-42.161 -30.599,-67.443l150.401,-145.333l0,-194.104c0,-16.135 13.104,-29.177 29.24,-29.177l132.099,0c16.135,0 29.24,13.042 29.24,29.177l0,10.016l75.354,-72.818c16.63,-15.891 44.078,-16.073 60.891,-0.312l426.719,402.24c26.646,25.161 7.667,67.755 -30.167,67.755Z" style="fill-rule:nonzero;"/></svg>