<?xml version="1.0" encoding="UTF-8" standalone="no"?><!DOCTYPE svg PUBLIC "-//W3C//DTD SVG 1.1//EN" "http://www.w3.org/Graphics/SVG/1.1/DTD/svg11.dtd"><svg width="100%" height="100%" viewBox="0 0 1000 1000" version="1.1" xmlns="http://www.w3.org/2000/svg" xmlns:xlink="http://www.w3.org/1999/xlink" xml:space="preserve" xmlns:serif="http://www.serif.com/" style="fill-rule:evenodd;clip-rule:evenodd;stroke-linejoin:round;stroke-miterlimit:2;"><g id="Homepage-hero-animation-WWAS.png" serif:id="Homepage hero animation WWAS.png"><path d="M555.993,277.047c-2.76,-3.01 -18.236,-19.887 -47.501,-18.7c-98.044,3.976 -88.086,81.979 -100.46,102.904c-12.742,21.547 -21.416,16.072 -125.562,-6.625c-72.332,-15.763 -93.049,-14.256 -85.202,-72.16c36.717,-270.948 336.255,-259.508 445.224,-219.947c151.811,55.115 157.851,208.142 158.509,220.006c10.256,185.104 -97.941,234.852 -159.079,302.368c-45.378,50.113 -27.178,80.27 -78.423,80.073c-27.963,-0.108 -141.963,0.265 -145.04,-0.242c-26.875,-4.426 -34.875,-20.095 -25.74,-57.173c34.018,-138.072 119.684,-139.448 162.402,-218.255c37.698,-69.547 6.736,-105.449 0.872,-112.249Z" style="fill:#221e1f;fill-opacity:1;"/><path d="M587.013,741.966c99.246,111.259 -22.965,250.126 -136.378,202.184c-117.299,-49.584 -94.171,-229.232 41.864,-238.667c27.289,-1.893 49.873,7.545 53.911,9.232c24.031,10.042 38.623,25.454 40.603,27.251Z" style="fill:#221e1f;fill-opacity:1;"/></g></svg>