<?xml version="1.0" encoding="UTF-8" standalone="no"?><!DOCTYPE svg PUBLIC "-//W3C//DTD SVG 1.1//EN" "http://www.w3.org/Graphics/SVG/1.1/DTD/svg11.dtd"><svg width="100%" height="100%" viewBox="0 0 1000 1000" version="1.1" xmlns="http://www.w3.org/2000/svg" xmlns:xlink="http://www.w3.org/1999/xlink" xml:space="preserve" xmlns:serif="http://www.serif.com/" style="fill-rule:evenodd;clip-rule:evenodd;stroke-linejoin:round;stroke-miterlimit:2;"><path d="M399.508,715.514c-11.158,-9.222 -13.218,-26.171 -6.787,-54.725c34.018,-151.055 119.684,-152.561 162.402,-238.778c37.698,-76.087 6.736,-115.364 0.872,-122.804c-2.76,-3.293 -18.236,-21.757 -47.501,-20.459c-98.044,4.35 -88.086,89.688 -100.46,112.58c-12.742,23.573 -21.416,17.583 -125.562,-7.247c-72.332,-17.245 -93.049,-15.597 -85.202,-78.945c36.717,-296.425 336.255,-283.91 445.224,-240.629c151.811,60.298 157.851,227.714 158.509,240.693c10.256,202.51 -97.941,256.935 -159.079,330.8c-31.401,37.939 -32.358,65.423 -46.949,78.683c1.992,1.846 3.269,3.136 3.788,3.606c113.206,126.91 -26.195,285.31 -155.562,230.625c-100.496,-42.481 -110.627,-168.66 -43.692,-233.401Z" style="fill-opacity:1;"/></svg>