<?xml version="1.0" encoding="UTF-8" standalone="no"?><!DOCTYPE svg PUBLIC "-//W3C//DTD SVG 1.1//EN" "http://www.w3.org/Graphics/SVG/1.1/DTD/svg11.dtd"><svg width="100%" height="100%" viewBox="0 0 1000 1000" version="1.1" xmlns="http://www.w3.org/2000/svg" xmlns:xlink="http://www.w3.org/1999/xlink" xml:space="preserve" xmlns:serif="http://www.serif.com/" style="fill-rule:evenodd;clip-rule:evenodd;stroke-linejoin:round;stroke-miterlimit:2;"><g id="_2.png" serif:id="2.png"><path d="M515.062,884.854c-35.782,0.018 -142.838,5.766 -260.175,-81.817c-63.834,-47.647 -150.62,-157.689 -135.09,-230.084c22.523,-104.993 161.434,-121.065 208.371,-28.628c4.431,8.726 31.151,83.355 118.531,110.353c69.346,21.426 173.624,0.676 219.985,-101.106c58.754,-128.989 234.504,-63.552 212.738,61.304c-4.08,23.403 -38.005,105.722 -114.073,171.548c-111.926,96.855 -231.346,97.227 -250.288,98.431Z"/><path d="M725.113,406.816c-4.409,-0.476 -31.653,-3.415 -53.591,-14.151c-128.923,-63.089 -96.233,-253.221 39.144,-275.359c125.816,-20.574 202.274,111.396 159.342,201.18c-42.281,88.424 -113.224,88.458 -144.895,88.329Z"/><path d="M253.792,406.812c-9.574,-1.041 -67.988,-7.395 -105.79,-57.44c-78.315,-103.679 8.642,-247.491 132.069,-233.339c121.094,13.884 166.732,155.441 97.864,237.213c-51.511,61.162 -115.449,53.604 -124.142,53.566Z"/></g></svg>