<?xml version="1.0" encoding="UTF-8" standalone="no"?><!DOCTYPE svg PUBLIC "-//W3C//DTD SVG 1.1//EN" "http://www.w3.org/Graphics/SVG/1.1/DTD/svg11.dtd"><svg width="100%" height="100%" viewBox="0 0 1000 1000" version="1.1" xmlns="http://www.w3.org/2000/svg" xmlns:xlink="http://www.w3.org/1999/xlink" xml:space="preserve" xmlns:serif="http://www.serif.com/" style="fill-rule:evenodd;clip-rule:evenodd;stroke-linejoin:round;stroke-miterlimit:2;"><g><path d="M690.391,318.118c-44.748,-45.725 -126.598,-88.244 -219.725,-76.829c-184.87,22.659 -248.361,194.312 -245.887,273.777c0.273,8.769 98.189,-22.774 99.144,49.801c0.256,19.441 1.717,130.368 -0.106,243.041c-0.236,14.558 -8.819,44.844 -47.771,45.509c-131.37,2.242 -132.523,-9.653 -135.646,-10.783c-3.953,-1.43 -27.971,-10.119 -45.69,-26.327c-111.528,-102.021 -55.364,-244.502 35.989,-285.005c6.588,-2.921 2.754,-5.425 3.105,-26.092c0.725,-42.684 17.538,-106.401 30.129,-132.692c6.789,-14.177 40.559,-103.166 142.567,-169.504c204.732,-133.142 495.113,-23.034 551.64,238.063c16.176,74.719 1.504,85.015 13.769,91.307c159.471,81.807 108.266,321.029 -76.544,321.033c-84.705,0.002 -92.401,2.932 -109.026,-17.554c-12.37,-15.243 -9.765,-34.884 -9.746,-41.232c0.427,-138.478 -1.413,-234.323 1.6,-244.116c12.964,-42.14 50.813,-33.648 95.667,-34.266c5.016,-0.069 -1.89,-48.004 -7.457,-67.394c-19.958,-69.513 -46.275,-100.312 -76.01,-130.736Z" style="fill-opacity:1;"/></g></svg>