<?xml version="1.0" encoding="UTF-8" standalone="no"?><!DOCTYPE svg PUBLIC "-//W3C//DTD SVG 1.1//EN" "http://www.w3.org/Graphics/SVG/1.1/DTD/svg11.dtd"><svg width="100%" height="100%" viewBox="0 0 1000 1000" version="1.1" xmlns="http://www.w3.org/2000/svg" xmlns:xlink="http://www.w3.org/1999/xlink" xml:space="preserve" xmlns:serif="http://www.serif.com/" style="fill-rule:evenodd;clip-rule:evenodd;stroke-linejoin:round;stroke-miterlimit:2;"><g><path d="M798.013,259.998c107.89,106.41 72.372,230.82 74.88,239.395c4.699,16.071 45.827,23.163 73.255,83.263c37.434,82.024 0.584,206.857 -126.659,225.736c-0.018,0.003 -0.016,0.967 -612.988,0.845c-160.403,-0.032 -202.016,-165.685 -137.533,-253.405c45.518,-61.92 94.705,-58.113 104.068,-68.725c10.359,-11.741 -1.743,-88.59 92.307,-132.949c48.307,-22.785 99.085,-4.544 107.154,-1.646c28.309,10.169 17.323,-14.266 61.542,-70.385c74.478,-94.523 240.759,-137.426 363.975,-22.128Z" style="fill-opacity:1;"/></g></svg>