<?xml version="1.0" encoding="UTF-8" standalone="no"?><!DOCTYPE svg PUBLIC "-//W3C//DTD SVG 1.1//EN" "http://www.w3.org/Graphics/SVG/1.1/DTD/svg11.dtd"><svg width="100%" height="100%" viewBox="0 0 1000 1000" version="1.1" xmlns="http://www.w3.org/2000/svg" xmlns:xlink="http://www.w3.org/1999/xlink" xml:space="preserve" xmlns:serif="http://www.serif.com/" style="fill-rule:evenodd;clip-rule:evenodd;stroke-linejoin:round;stroke-miterlimit:2;"><path d="M409.97,743.96c-24.431,49.717 -96.276,81.386 -208.842,-28.876c-1.282,-1.391 -117.683,-107.316 -78.796,-284.574c29.523,-134.574 140.185,-193.116 158.378,-202.741c71.791,-37.978 112.543,-1.734 128.916,29.44c37.26,-50.303 116.297,-66.639 167.621,-15.439c1.651,1.647 3.236,3.313 4.757,4.996c2.603,-4.268 4.911,-7.177 6.272,-8.322c26.174,-22.038 76.259,-64.877 194.11,45.086c156.409,160.243 99.458,416.37 -99.454,500.596c-38.848,16.449 -79.387,-0.332 -100.759,-30.931c-46.204,51.863 -132.581,47.054 -172.203,-9.236Z" style="fill-opacity:0.98;"/></svg>